<svg xmlns="http://www.w3.org/2000/svg" viewBox="0 0 150 120" width="100%" height="100%">
  <g transform="translate(30, 20)">
    <!-- Black 'D' body with serifs -->
    <path d="
        M -20 0 L 35 0 C 70 0, 90 20, 90 40 C 90 60, 70 80, 35 80 L -20 80 L -20 70 C -10 70, -5 65, -5 55 L -5 25 C -5 15, -10 10, -20 10 Z 
        M 15 10 L 15 70 C 45 70, 65 60, 65 40 C 65 20, 45 10, 15 10 Z" 
        fill="currentColor" fill-rule="evenodd" />
    
    <!-- Yellow inner bar -->
    <path d="M 23 15 Q 26 15 26 18 L 26 62 Q 26 65 23 65 L 18 65 L 18 15 Z" fill="#ffb833"/>
    
    <!-- Orange crescent to the right -->
    <path d="M 75 -5 C 105 15, 105 65, 75 85 C 95 75, 115 55, 115 40 C 115 25, 95 5, 75 -5 Z" fill="#ff8c42"/>
  </g>
</svg>
